<?xml version="1.0" encoding="UTF-8" standalone="no"?>
<!DOCTYPE svg PUBLIC "-//W3C//DTD SVG 1.1//EN" "http://www.w3.org/Graphics/SVG/1.1/DTD/svg11.dtd">
<svg xmlns="http://www.w3.org/2000/svg" version="1.1" viewBox="0.00 0.00 1024.00 1024.00">
<path fill="#000000" d="
  M 732.94 476.92
  L 732.59 477.03
  L 732.21 476.84
  L 726.50 462.43
  L 720.44 449.05
  L 717.79 443.95
  L 714.73 438.75
  L 711.27 433.47
  L 707.41 428.09
  L 704.27 424.16
  L 700.92 420.49
  L 697.37 417.07
  L 693.62 413.91
  L 693.62 413.91
  L 693.62 413.91
  L 693.62 413.91
  L 689.39 410.82
  L 684.94 408.02
  L 680.25 405.51
  L 675.33 403.29
  L 675.23 403.27
  L 675.05 403.40
  L 675.06 403.62
  L 676.82 406.60
  L 678.27 409.64
  L 679.41 412.75
  L 680.26 415.93
  L 680.26 415.93
  L 680.87 419.82
  L 681.04 423.80
  L 681.19 424.29
  L 681.61 424.60
  L 684.59 425.87
  L 687.45 427.57
  L 690.18 429.69
  L 692.79 432.23
  L 694.72 434.67
  L 696.14 437.23
  L 697.25 440.15
  L 698.11 443.55
  L 698.99 448.50
  L 699.09 450.24
  L 698.79 451.78
  L 698.13 453.06
  L 696.95 454.49
  L 695.77 455.92
  L 695.09 457.22
  L 694.94 457.68
  L 693.28 463.48
  L 691.42 469.18
  L 689.36 474.81
  L 687.09 480.35
  L 687.09 480.35
  L 687.09 480.35
  L 684.84 485.36
  L 682.50 489.70
  L 679.65 493.82
  L 679.26 494.64
  L 679.23 495.56
  L 679.58 496.40
  L 680.25 497.03
  L 680.25 497.03
  L 680.46 497.14
  L 682.45 497.86
  L 684.44 498.16
  L 686.25 498.02
  L 687.96 497.45
  L 689.34 496.55
  L 690.55 495.27
  L 691.76 494.13
  L 693.46 493.24
  L 694.36 493.16
  L 695.15 493.59
  L 697.60 496.03
  L 697.88 496.53
  L 697.86 497.09
  L 696.83 499.47
  L 695.43 501.19
  L 694.65 501.68
  L 693.76 501.91
  L 692.84 501.84
  L 691.99 501.50
  L 690.17 500.64
  L 688.29 500.19
  L 688.29 500.19
  L 688.29 500.19
  L 686.75 500.13
  L 685.17 500.34
  L 684.68 500.37
  L 683.11 500.20
  L 681.67 499.84
  L 680.36 499.31
  L 679.18 498.59
  L 679.18 498.59
  L 677.74 497.28
  L 677.02 496.94
  L 676.28 497.24
  L 676.22 497.31
  L 675.25 498.36
  L 674.16 499.23
  L 674.16 499.23
  L 674.16 499.23
  L 671.92 500.33
  L 669.29 500.85
  L 668.24 500.81
  L 666.91 500.50
  L 665.65 500.20
  L 665.00 500.20
  L 664.37 500.39
  L 664.29 500.43
  L 662.27 501.34
  L 660.74 501.81
  L 659.36 501.92
  L 658.26 501.64
  L 657.33 501.00
  L 656.61 500.16
  L 656.11 499.27
  L 655.82 498.28
  L 655.78 497.29
  L 656.16 495.86
  L 657.05 494.62
  L 658.29 493.72
  L 659.88 493.15
  L 660.89 493.25
  L 662.69 494.53
  L 664.73 496.91
  L 666.01 498.14
  L 667.64 498.85
  L 669.40 498.96
  L 671.10 498.46
  L 673.04 497.49
  L 674.02 496.71
  L 674.61 495.59
  L 674.69 494.34
  L 674.25 493.16
  L 674.25 493.16
  L 674.07 492.91
  L 671.05 488.61
  L 668.24 483.64
  L 665.65 478.02
  L 663.27 471.74
  L 660.10 461.96
  L 658.65 456.08
  L 658.48 455.58
  L 658.13 455.19
  L 658.05 455.12
  L 657.14 454.11
  L 656.53 452.85
  L 656.16 451.32
  L 656.03 449.42
  L 656.16 447.23
  L 656.55 444.81
  L 658.10 439.08
  L 659.54 435.88
  L 661.69 432.78
  L 664.58 429.78
  L 668.18 426.88
  L 668.65 426.64
  L 674.29 424.77
  L 674.69 424.50
  L 674.89 424.06
  L 675.05 420.44
  L 674.43 416.55
  L 673.04 412.29
  L 670.89 407.80
  L 669.52 405.65
  L 667.74 403.49
  L 665.68 401.50
  L 663.23 399.56
  L 660.48 397.74
  L 657.43 396.03
  L 654.05 394.43
  L 650.50 393.01
  L 650.21 393.07
  L 650.13 393.36
  L 650.24 393.51
  L 654.16 396.36
  L 657.79 399.33
  L 661.13 402.44
  L 664.18 405.68
  L 664.83 406.65
  L 665.12 407.65
  L 665.12 407.65
  L 665.12 407.65
  L 665.03 408.79
  L 664.50 409.98
  L 652.76 429.98
  L 636.85 458.63
  L 628.56 473.59
  L 618.54 490.63
  L 605.54 512.28
  L 603.94 514.50
  L 603.38 514.74
  L 602.84 514.48
  L 602.84 514.48
  L 602.77 514.38
  L 561.70 440.29
  L 561.59 440.17
  L 561.26 440.15
  L 561.07 440.43
  L 561.03 451.88
  L 560.92 453.62
  L 560.51 455.98
  L 559.99 459.40
  L 560.15 461.97
  L 560.37 462.42
  L 560.77 462.74
  L 562.69 463.80
  L 564.37 465.01
  L 565.79 466.39
  L 566.97 467.93
  L 566.97 467.93
  L 566.97 467.93
  L 566.97 467.93
  L 568.02 469.89
  L 568.75 472.06
  L 569.15 474.44
  L 569.23 477.03
  L 568.93 479.45
  L 568.22 481.62
  L 567.37 483.22
  L 566.30 484.65
  L 564.97 485.98
  L 563.46 487.14
  L 561.69 488.18
  L 559.78 489.01
  L 557.68 489.67
  L 555.50 490.11
  L 554.37 490.09
  L 551.66 489.43
  L 549.25 488.47
  L 547.14 487.22
  L 545.33 485.68
  L 543.42 483.22
  L 542.01 480.26
  L 541.43 478.22
  L 541.17 476.24
  L 541.21 474.21
  L 541.56 472.28
  L 542.18 470.51
  L 543.05 468.86
  L 544.16 467.34
  L 545.49 465.96
  L 547.03 464.76
  L 548.75 463.73
  L 550.64 462.91
  L 552.68 462.30
  L 553.48 461.82
  L 553.84 460.96
  L 554.88 448.90
  L 554.96 445.77
  L 554.77 441.28
  L 553.57 428.26
  L 553.38 427.60
  L 539.96 400.75
  L 539.43 400.27
  L 538.71 400.29
  L 532.10 403.32
  L 525.90 406.80
  L 520.11 410.74
  L 514.72 415.13
  L 514.72 415.13
  L 514.72 415.13
  L 514.72 415.13
  L 510.25 419.43
  L 506.11 424.10
  L 502.29 429.13
  L 498.80 434.52
  L 485.08 458.81
  L 482.78 462.42
  L 478.73 467.89
  L 476.74 470.52
  L 470.18 478.69
  L 463.17 486.26
  L 455.71 493.22
  L 447.79 499.58
  L 447.79 499.58
  L 442.76 503.15
  L 437.55 506.50
  L 430.09 510.66
  L 422.36 514.17
  L 422.36 514.17
  L 415.91 516.54
  L 409.29 518.49
  L 402.50 520.01
  L 395.53 521.11
  L 391.13 521.26
  L 382.50 521.11
  L 375.56 520.69
  L 369.55 519.85
  L 364.57 518.71
  L 359.67 517.22
  L 354.88 515.38
  L 350.22 513.21
  L 345.72 510.72
  L 341.41 507.93
  L 337.31 504.85
  L 333.45 501.49
  L 329.93 497.95
  L 326.68 494.16
  L 323.80 490.23
  L 321.23 486.08
  L 319.05 481.88
  L 317.22 477.50
  L 315.77 473.06
  L 314.69 468.47
  L 314.49 468.00
  L 314.12 467.65
  L 312.88 467.19
  L 311.26 467.13
  L 302.89 467.99
  L 294.60 469.19
  L 286.40 470.73
  L 278.29 472.60
  L 278.29 472.60
  L 278.29 472.60
  L 278.29 472.60
  L 269.42 475.07
  L 260.65 477.95
  L 252.00 481.24
  L 243.44 484.95
  L 234.75 489.10
  L 225.41 493.84
  L 225.27 493.88
  L 224.91 493.74
  L 224.82 493.37
  L 225.33 492.32
  L 229.99 487.41
  L 234.78 482.66
  L 239.71 478.06
  L 244.76 473.62
  L 244.76 473.62
  L 244.76 473.62
  L 244.76 473.62
  L 244.76 473.62
  L 250.65 468.77
  L 256.70 464.11
  L 262.93 459.65
  L 269.32 455.39
  L 275.88 451.32
  L 282.60 447.46
  L 289.50 443.78
  L 296.56 440.31
  L 301.77 438.09
  L 309.97 434.93
  L 318.12 432.14
  L 323.60 430.55
  L 329.13 429.17
  L 334.82 427.97
  L 340.57 426.97
  L 346.43 426.17
  L 352.37 425.56
  L 364.74 424.90
  L 369.83 424.84
  L 382.87 425.23
  L 395.80 426.36
  L 408.74 428.25
  L 421.52 430.88
  L 434.30 434.27
  L 446.88 438.38
  L 459.35 443.22
  L 471.57 448.76
  L 472.04 449.31
  L 471.95 450.03
  L 471.91 450.09
  L 466.45 457.44
  L 460.63 464.65
  L 454.46 471.73
  L 447.92 478.68
  L 441.00 485.28
  L 434.08 490.90
  L 433.65 491.07
  L 433.19 490.99
  L 425.54 487.54
  L 417.92 484.37
  L 410.35 481.48
  L 402.82 478.88
  L 393.76 476.10
  L 393.76 476.10
  L 386.09 474.02
  L 378.36 472.17
  L 370.55 470.56
  L 362.68 469.17
  L 354.75 468.03
  L 346.74 467.11
  L 338.67 466.43
  L 330.53 465.98
  L 326.98 465.98
  L 323.37 466.28
  L 323.31 466.29
  L 322.68 466.52
  L 322.19 466.99
  L 321.92 467.61
  L 321.91 468.29
  L 322.15 469.45
  L 323.23 473.54
  L 324.67 477.47
  L 326.48 481.34
  L 328.61 485.03
  L 331.14 488.67
  L 333.96 492.10
  L 337.14 495.39
  L 340.56 498.44
  L 344.34 501.35
  L 348.33 503.98
  L 352.58 506.37
  L 356.96 508.46
  L 361.50 510.25
  L 366.11 511.71
  L 370.76 512.83
  L 375.40 513.60
  L 381.50 514.01
  L 389.88 513.96
  L 397.64 513.45
  L 404.26 512.42
  L 411.11 510.67
  L 417.91 508.35
  L 424.52 505.52
  L 431.06 502.14
  L 437.42 498.25
  L 443.67 493.83
  L 449.77 488.88
  L 455.69 483.43
  L 460.04 479.03
  L 464.17 474.56
  L 468.08 470.00
  L 471.77 465.37
  L 475.23 460.66
  L 478.48 455.87
  L 481.50 451.01
  L 484.30 446.06
  L 484.47 445.75
  L 491.72 432.70
  L 494.58 428.05
  L 497.38 423.90
  L 500.30 420.01
  L 503.31 416.44
  L 506.42 413.18
  L 509.66 410.20
  L 512.28 408.05
  L 516.70 404.79
  L 521.28 401.77
  L 521.28 401.77
  L 521.28 401.77
  L 528.60 397.61
  L 536.27 394.02
  L 536.80 393.51
  L 536.85 392.78
  L 535.79 388.73
  L 535.12 384.68
  L 534.85 380.75
  L 534.99 376.87
  L 535.52 373.22
  L 536.45 369.68
  L 537.75 366.38
  L 539.46 363.23
  L 541.31 360.61
  L 543.51 358.15
  L 545.97 355.94
  L 548.76 353.91
  L 554.54 350.60
  L 559.29 348.50
  L 564.25 346.82
  L 564.81 346.38
  L 564.91 345.68
  L 563.84 340.35
  L 563.16 335.05
  L 562.89 329.77
  L 563.01 324.51
  L 563.01 324.51
  L 563.01 324.51
  L 563.01 324.51
  L 563.48 319.71
  L 564.28 314.93
  L 565.42 310.17
  L 566.90 305.43
  L 568.24 302.65
  L 570.72 298.67
  L 572.41 296.47
  L 574.54 294.32
  L 576.94 292.38
  L 579.72 290.55
  L 582.77 288.92
  L 586.11 287.48
  L 589.49 286.34
  L 592.98 285.46
  L 597.52 284.74
  L 602.15 284.42
  L 606.88 284.52
  L 611.71 285.02
  L 615.75 285.76
  L 619.66 286.80
  L 623.27 288.10
  L 626.71 289.71
  L 629.76 291.52
  L 632.59 293.63
  L 635.08 295.96
  L 637.32 298.58
  L 639.70 302.23
  L 641.52 306.18
  L 643.06 311.08
  L 644.09 316.35
  L 644.62 321.99
  L 644.63 328.00
  L 643.98 335.56
  L 642.63 343.39
  L 640.56 351.46
  L 637.79 359.80
  L 636.19 363.70
  L 634.33 367.41
  L 632.22 370.93
  L 629.86 374.22
  L 627.28 377.25
  L 624.47 380.04
  L 621.49 382.51
  L 618.30 384.72
  L 615.37 386.41
  L 612.27 387.89
  L 609.12 389.11
  L 605.81 390.12
  L 603.82 390.35
  L 601.22 390.18
  L 598.58 389.64
  L 596.28 388.79
  L 590.02 385.43
  L 584.94 382.00
  L 580.63 378.22
  L 578.76 376.19
  L 577.02 373.99
  L 574.57 370.17
  L 570.42 362.05
  L 567.02 353.88
  L 566.72 353.51
  L 566.25 353.42
  L 563.28 354.12
  L 560.03 355.37
  L 556.44 357.19
  L 552.83 359.42
  L 549.94 361.61
  L 547.47 364.01
  L 545.44 366.62
  L 543.83 369.43
  L 543.83 369.43
  L 542.97 371.46
  L 542.32 373.59
  L 541.87 375.81
  L 541.61 378.13
  L 541.70 383.06
  L 542.58 388.37
  L 542.83 389.04
  L 543.22 389.52
  L 543.89 389.89
  L 544.69 390.02
  L 545.67 389.91
  L 546.66 389.59
  L 552.55 387.26
  L 557.60 385.60
  L 562.30 384.46
  L 566.75 383.82
  L 569.17 383.78
  L 572.54 384.32
  L 576.02 385.56
  L 579.81 387.54
  L 585.31 390.98
  L 588.65 393.12
  L 594.30 396.80
  L 597.36 399.03
  L 597.43 399.09
  L 597.89 399.72
  L 598.07 400.48
  L 597.93 401.24
  L 597.50 401.89
  L 589.68 409.70
  L 589.67 409.71
  L 588.80 410.06
  L 587.95 409.68
  L 584.15 405.86
  L 581.05 403.07
  L 576.00 398.47
  L 574.98 397.41
  L 572.69 395.09
  L 570.98 393.63
  L 569.37 392.61
  L 567.80 391.99
  L 567.49 391.91
  L 567.09 391.88
  L 566.52 392.06
  L 566.09 392.48
  L 565.90 393.05
  L 565.99 393.65
  L 566.96 397.38
  L 567.60 400.24
  L 574.43 422.60
  L 578.41 434.65
  L 582.60 446.63
  L 587.49 460.89
  L 587.54 460.97
  L 587.76 461.06
  L 587.96 460.93
  L 589.26 458.28
  L 597.80 436.84
  L 598.65 434.62
  L 600.03 430.89
  L 600.70 428.21
  L 600.83 425.94
  L 600.41 423.96
  L 599.70 422.56
  L 596.63 418.37
  L 593.72 415.22
  L 591.14 413.29
  L 590.00 412.81
  L 588.92 412.64
  L 588.53 412.42
  L 588.52 411.97
  L 588.67 411.81
  L 595.69 407.33
  L 595.75 407.30
  L 597.73 406.59
  L 599.70 406.10
  L 601.66 405.82
  L 603.62 405.77
  L 603.62 405.77
  L 603.62 405.77
  L 603.62 405.77
  L 605.93 405.99
  L 608.23 406.52
  L 610.52 407.36
  L 612.81 408.50
  L 617.42 411.10
  L 617.88 411.74
  L 617.60 412.48
  L 617.30 412.64
  L 615.69 413.13
  L 615.42 413.29
  L 611.28 417.60
  L 607.15 422.68
  L 606.44 423.87
  L 606.09 425.10
  L 606.09 425.10
  L 606.09 426.35
  L 606.42 427.64
  L 612.86 444.44
  L 617.42 455.83
  L 619.17 459.18
  L 619.46 459.62
  L 619.58 459.74
  L 620.04 459.82
  L 620.38 459.49
  L 624.48 446.89
  L 628.89 434.38
  L 632.15 425.19
  L 635.22 415.57
  L 638.10 405.52
  L 640.79 395.03
  L 641.07 393.05
  L 641.04 392.86
  L 640.49 392.18
  L 639.60 392.17
  L 635.55 394.42
  L 631.27 397.58
  L 626.72 401.64
  L 621.03 407.38
  L 618.41 410.08
  L 618.15 410.20
  L 617.88 410.10
  L 608.07 401.04
  L 608.04 400.60
  L 609.60 398.93
  L 611.15 397.64
  L 621.23 390.90
  L 625.60 388.30
  L 629.74 386.09
  L 632.73 384.87
  L 636.03 384.08
  L 639.45 383.76
  L 643.12 383.87
  L 646.92 384.43
  L 650.85 385.43
  L 654.87 386.88
  L 658.83 388.71
  L 669.49 394.99
  L 670.43 395.41
  L 675.29 397.10
  L 679.92 398.99
  L 684.30 401.07
  L 688.44 403.35
  L 692.35 405.82
  L 696.02 408.49
  L 699.44 411.36
  L 702.63 414.42
  L 707.77 420.08
  L 712.23 425.79
  L 716.03 431.56
  L 719.15 437.38
  L 722.74 445.51
  L 726.15 454.50
  L 729.52 464.71
  L 733.05 476.73
  L 733.04 476.83
  L 732.94 476.92
  Z
  M 551.62 395.76
  L 551.62 395.42
  L 551.56 395.35
  L 551.25 395.40
  L 551.23 395.46
  L 551.30 395.79
  L 551.35 395.84
  L 551.37 395.86
  L 551.62 395.76
  Z
  M 550.0339 396.2870
  L 549.4927 396.2763
  L 548.4580 396.7306
  L 547.5357 397.3836
  L 547.2661 397.8530
  L 547.8073 397.8637
  L 548.8420 397.4094
  L 549.7643 396.7564
  L 550.0339 396.2870
  Z
  M 676.59 492.96
  L 676.89 493.14
  L 677.23 493.03
  L 677.23 493.03
  L 677.27 492.99
  L 679.06 490.63
  L 680.72 488.12
  L 683.60 482.62
  L 686.44 475.87
  L 688.86 469.13
  L 690.88 462.41
  L 692.48 455.72
  L 692.47 455.27
  L 692.26 454.87
  L 692.25 454.86
  L 690.44 452.51
  L 690.06 451.62
  L 689.95 450.72
  L 690.42 449.29
  L 691.63 447.89
  L 692.33 446.88
  L 692.52 445.67
  L 692.11 442.55
  L 691.31 439.77
  L 690.14 437.33
  L 688.59 435.24
  L 688.59 435.24
  L 686.57 433.43
  L 684.13 431.99
  L 681.29 430.92
  L 678.03 430.23
  L 676.73 430.25
  L 673.74 430.99
  L 671.10 432.05
  L 668.81 433.44
  L 666.85 435.16
  L 666.85 435.16
  L 665.17 437.31
  L 663.87 439.82
  L 662.95 442.69
  L 662.40 445.92
  L 662.67 447.02
  L 663.26 447.89
  L 664.44 449.81
  L 664.74 451.26
  L 664.50 452.16
  L 663.87 453.14
  L 662.80 454.75
  L 662.20 456.45
  L 662.20 456.45
  L 662.04 458.06
  L 662.26 459.75
  L 663.43 464.32
  L 663.43 464.32
  L 665.17 470.01
  L 667.22 475.62
  L 669.58 481.14
  L 672.25 486.57
  L 672.32 486.71
  L 674.94 490.65
  L 676.59 492.96
  Z
  M 563.46 475.76
  L 563.30 474.18
  L 562.84 472.67
  L 562.10 471.27
  L 561.09 470.05
  L 559.87 469.04
  L 558.47 468.30
  L 556.96 467.84
  L 555.38 467.68
  L 553.80 467.84
  L 552.29 468.30
  L 550.89 469.04
  L 549.67 470.05
  L 548.66 471.27
  L 547.92 472.67
  L 547.46 474.18
  L 547.30 475.76
  L 547.46 477.34
  L 547.92 478.85
  L 548.66 480.25
  L 549.67 481.47
  L 550.89 482.48
  L 552.29 483.22
  L 553.80 483.68
  L 555.38 483.84
  L 556.96 483.68
  L 558.47 483.22
  L 559.87 482.48
  L 561.09 481.47
  L 562.10 480.25
  L 562.84 478.85
  L 563.30 477.34
  L 563.46 475.76
  Z"
/>
<path fill="#000000" d="
  M 458.35 502.77
  L 458.24 502.67
  L 457.93 501.86
  L 458.35 501.10
  L 466.34 494.71
  L 473.72 487.87
  L 480.50 480.59
  L 486.68 472.86
  L 486.68 472.86
  L 486.68 472.86
  L 490.49 467.41
  L 494.03 461.76
  L 494.05 461.72
  L 494.68 461.31
  L 495.41 461.48
  L 505.95 469.02
  L 516.94 476.49
  L 528.39 483.86
  L 540.30 491.16
  L 546.53 494.72
  L 553.93 498.63
  L 562.29 502.78
  L 571.08 506.90
  L 579.02 510.35
  L 587.04 513.49
  L 595.15 516.32
  L 603.35 518.85
  L 603.35 518.85
  L 603.35 518.85
  L 606.72 519.79
  L 613.31 521.44
  L 619.73 522.76
  L 625.96 523.76
  L 632.02 524.42
  L 639.28 524.90
  L 646.46 525.11
  L 653.43 525.07
  L 660.21 524.76
  L 666.78 524.19
  L 673.08 523.36
  L 679.19 522.27
  L 684.96 520.93
  L 690.90 519.25
  L 696.80 517.33
  L 702.65 515.17
  L 708.44 512.77
  L 714.17 510.14
  L 719.80 507.28
  L 725.34 504.21
  L 730.76 500.92
  L 736.03 497.45
  L 741.16 493.78
  L 746.06 489.98
  L 750.81 486.00
  L 755.37 481.85
  L 759.76 477.53
  L 763.89 473.12
  L 767.82 468.56
  L 774.00 460.65
  L 779.69 452.50
  L 784.91 444.10
  L 789.64 435.45
  L 789.64 435.45
  L 789.64 435.45
  L 793.77 426.82
  L 797.44 417.96
  L 799.21 413.05
  L 800.65 408.36
  L 801.76 403.89
  L 802.54 399.65
  L 802.45 399.29
  L 802.12 399.12
  L 802.09 399.12
  L 800.46 398.96
  L 798.84 398.50
  L 797.13 397.72
  L 795.49 396.70
  L 793.76 395.34
  L 792.19 393.81
  L 790.76 392.09
  L 789.61 390.36
  L 788.49 388.17
  L 787.67 385.97
  L 787.15 383.76
  L 786.93 381.54
  L 786.93 381.54
  L 786.93 381.54
  L 787.05 379.04
  L 787.55 376.51
  L 788.44 373.98
  L 789.71 371.44
  L 791.11 369.37
  L 792.73 367.65
  L 794.76 366.11
  L 797.03 364.91
  L 799.66 363.97
  L 802.74 363.26
  L 805.53 363.03
  L 808.32 363.31
  L 811.16 364.10
  L 813.87 365.33
  L 816.43 367.01
  L 818.70 369.05
  L 820.52 371.31
  L 821.92 373.78
  L 823.09 377.12
  L 823.56 380.49
  L 823.50 382.75
  L 823.14 385.01
  L 822.48 387.29
  L 821.51 389.58
  L 819.73 392.55
  L 817.52 395.04
  L 817.52 395.04
  L 815.73 396.47
  L 813.73 397.68
  L 811.53 398.67
  L 809.11 399.42
  L 808.64 399.66
  L 808.33 400.07
  L 808.02 401.15
  L 807.90 402.67
  L 807.78 404.30
  L 806.47 412.11
  L 804.93 419.77
  L 803.15 427.26
  L 801.15 434.60
  L 798.91 441.77
  L 796.45 448.78
  L 793.75 455.63
  L 790.82 462.32
  L 787.68 468.82
  L 784.34 475.14
  L 780.80 481.28
  L 777.06 487.24
  L 773.12 493.01
  L 768.98 498.61
  L 764.63 504.02
  L 760.09 509.25
  L 760.09 509.25
  L 760.09 509.25
  L 753.31 516.34
  L 746.12 523.07
  L 738.53 529.44
  L 730.54 535.44
  L 723.87 539.95
  L 717.04 544.13
  L 709.98 548.02
  L 702.78 551.56
  L 692.93 555.75
  L 682.87 559.32
  L 672.52 562.30
  L 661.99 564.64
  L 651.29 566.35
  L 640.46 567.42
  L 629.53 567.86
  L 618.50 567.65
  L 610.12 567.10
  L 601.76 566.23
  L 593.41 565.04
  L 585.07 563.55
  L 576.74 561.73
  L 568.42 559.61
  L 560.12 557.17
  L 551.83 554.41
  L 542.02 550.89
  L 535.76 548.47
  L 528.61 545.38
  L 521.47 542.07
  L 514.34 538.53
  L 507.22 534.77
  L 493.00 526.56
  L 478.82 517.45
  L 469.60 511.01
  L 458.35 502.77
  Z
  M 817.45 381.10
  L 817.22 378.74
  L 816.53 376.47
  L 815.41 374.38
  L 813.91 372.54
  L 812.07 371.04
  L 809.98 369.92
  L 807.71 369.23
  L 805.35 369.00
  L 802.99 369.23
  L 800.72 369.92
  L 798.63 371.04
  L 796.79 372.54
  L 795.29 374.38
  L 794.17 376.47
  L 793.48 378.74
  L 793.25 381.10
  L 793.48 383.46
  L 794.17 385.73
  L 795.29 387.82
  L 796.79 389.66
  L 798.63 391.16
  L 800.72 392.28
  L 802.99 392.97
  L 805.35 393.20
  L 807.71 392.97
  L 809.98 392.28
  L 812.07 391.16
  L 813.91 389.66
  L 815.41 387.82
  L 816.53 385.73
  L 817.22 383.46
  L 817.45 381.10
  Z"
/>
<path fill="#000000" d="
  M 815.14 382.08
  L 814.82 384.52
  L 814.37 385.97
  L 813.46 387.37
  L 812.40 388.60
  L 811.21 389.64
  L 809.91 390.49
  L 808.52 391.11
  L 807.07 391.52
  L 805.58 391.68
  L 804.08 391.60
  L 802.73 391.29
  L 801.40 390.77
  L 799.04 389.16
  L 797.26 387.15
  L 795.86 384.77
  L 795.07 382.46
  L 794.91 380.36
  L 795.42 378.32
  L 796.60 376.17
  L 798.37 374.07
  L 800.47 372.38
  L 803.06 371.20
  L 804.46 370.91
  L 805.84 370.84
  L 807.34 371.01
  L 808.78 371.42
  L 810.14 372.06
  L 811.40 372.92
  L 812.54 373.97
  L 813.54 375.19
  L 814.38 376.58
  L 815.03 378.12
  L 815.24 379.63
  L 815.14 382.08
  Z"
/>
<path fill="#000000" d="
  M 330.01 656.32
  L 330.13 660.49
  L 330.00 664.60
  L 329.64 668.63
  L 329.05 672.58
  L 328.21 676.50
  L 327.13 680.33
  L 325.83 684.06
  L 324.30 687.68
  L 321.95 692.31
  L 319.22 696.73
  L 316.12 700.93
  L 312.68 704.89
  L 308.90 708.61
  L 304.78 712.06
  L 300.35 715.24
  L 295.60 718.14
  L 289.94 720.95
  L 284.07 723.13
  L 284.07 723.13
  L 279.81 724.30
  L 275.45 725.15
  L 271.14 725.71
  L 266.90 726.04
  L 262.74 726.14
  L 258.66 725.99
  L 254.65 725.61
  L 250.71 725.00
  L 246.86 724.15
  L 243.08 723.06
  L 243.08 723.06
  L 243.08 723.06
  L 243.08 723.06
  L 237.76 721.08
  L 232.60 718.60
  L 227.59 715.64
  L 222.75 712.18
  L 217.59 707.77
  L 213.00 702.99
  L 209.00 697.85
  L 205.57 692.38
  L 203.91 689.16
  L 202.43 685.84
  L 201.14 682.42
  L 200.04 678.91
  L 199.14 675.30
  L 198.42 671.61
  L 197.90 667.83
  L 197.58 663.97
  L 197.46 660.10
  L 197.54 656.28
  L 197.82 652.53
  L 198.31 648.85
  L 198.99 645.23
  L 199.88 641.69
  L 200.96 638.22
  L 202.25 634.83
  L 205.02 629.00
  L 208.41 623.44
  L 212.41 618.16
  L 217.03 613.18
  L 221.44 609.19
  L 226.07 605.67
  L 230.91 602.62
  L 235.97 600.03
  L 235.97 600.03
  L 239.60 598.52
  L 243.33 597.23
  L 247.17 596.16
  L 251.10 595.33
  L 255.14 594.71
  L 259.29 594.33
  L 263.53 594.16
  L 267.88 594.23
  L 272.31 594.57
  L 276.68 595.24
  L 282.76 596.73
  L 288.71 598.87
  L 293.76 601.20
  L 298.53 603.85
  L 303.01 606.81
  L 307.20 610.06
  L 311.08 613.60
  L 314.63 617.42
  L 317.85 621.49
  L 320.73 625.82
  L 322.66 629.24
  L 324.38 632.80
  L 325.89 636.48
  L 327.18 640.28
  L 328.23 644.13
  L 329.05 648.09
  L 329.65 652.16
  L 330.01 656.32
  Z
  M 224.90 660.95
  L 225.37 666.59
  L 226.52 672.00
  L 228.33 677.21
  L 230.77 682.07
  L 233.79 686.51
  L 237.36 690.47
  L 241.37 693.83
  L 245.85 696.60
  L 250.19 698.54
  L 254.86 699.93
  L 259.66 700.71
  L 264.72 700.90
  L 269.76 700.48
  L 274.53 699.48
  L 279.13 697.89
  L 283.38 695.76
  L 287.72 692.78
  L 291.58 689.25
  L 294.97 685.13
  L 297.79 680.56
  L 300.01 675.60
  L 301.58 670.31
  L 302.48 664.85
  L 302.70 659.20
  L 302.23 653.56
  L 301.09 648.15
  L 299.27 642.94
  L 296.84 638.08
  L 293.81 633.64
  L 290.24 629.68
  L 286.23 626.32
  L 281.75 623.55
  L 277.41 621.61
  L 272.74 620.22
  L 267.94 619.44
  L 262.88 619.25
  L 257.84 619.67
  L 253.07 620.67
  L 248.48 622.26
  L 244.22 624.39
  L 239.88 627.37
  L 236.02 630.90
  L 232.63 635.02
  L 229.81 639.59
  L 227.59 644.55
  L 226.02 649.84
  L 225.12 655.30
  L 224.90 660.95
  Z"
/>
<path fill="#000000" d="
  M 455.02 701.40
  L 455.02 701.40
  L 455.23 701.82
  L 455.09 702.26
  L 451.97 705.69
  L 448.69 708.92
  L 445.35 711.84
  L 441.86 714.53
  L 438.35 716.89
  L 434.71 719.00
  L 431.02 720.82
  L 427.20 722.38
  L 423.87 723.49
  L 420.46 724.41
  L 413.45 725.68
  L 406.18 726.20
  L 398.86 725.93
  L 391.68 724.89
  L 384.67 723.09
  L 381.29 721.91
  L 378.00 720.55
  L 374.89 719.04
  L 371.89 717.36
  L 366.47 713.77
  L 361.52 709.82
  L 357.05 705.49
  L 353.05 700.80
  L 353.05 700.80
  L 353.05 700.80
  L 349.52 695.71
  L 346.47 690.25
  L 343.90 684.42
  L 341.81 678.21
  L 340.71 673.47
  L 340.17 668.77
  L 339.88 660.94
  L 339.98 654.60
  L 340.48 648.95
  L 341.42 643.84
  L 343.03 638.24
  L 345.14 632.81
  L 347.72 627.59
  L 350.75 622.62
  L 354.22 617.94
  L 358.10 613.58
  L 362.30 609.64
  L 366.87 606.08
  L 370.81 603.49
  L 374.86 601.21
  L 379.01 599.24
  L 383.28 597.58
  L 390.11 595.62
  L 397.20 594.42
  L 404.56 593.96
  L 412.17 594.25
  L 418.36 595.10
  L 424.39 596.59
  L 430.40 598.80
  L 436.30 601.74
  L 442.20 605.47
  L 448.15 610.03
  L 450.12 611.90
  L 452.46 614.57
  L 455.68 618.10
  L 455.73 618.15
  L 455.84 618.58
  L 455.60 618.95
  L 451.24 621.90
  L 446.82 625.16
  L 437.74 632.56
  L 437.11 632.93
  L 436.40 633.04
  L 435.69 632.89
  L 435.09 632.49
  L 429.46 627.10
  L 425.70 624.54
  L 421.60 622.46
  L 417.12 620.83
  L 412.46 619.73
  L 407.68 619.16
  L 402.92 619.15
  L 398.38 619.70
  L 394.04 620.80
  L 391.28 621.83
  L 388.66 623.04
  L 386.17 624.43
  L 383.82 625.99
  L 381.11 628.15
  L 378.62 630.55
  L 376.37 633.16
  L 374.34 635.99
  L 372.54 639.05
  L 370.98 642.30
  L 369.68 645.71
  L 368.64 649.28
  L 368.16 651.97
  L 367.81 655.78
  L 367.39 660.17
  L 367.50 661.54
  L 367.90 666.35
  L 368.61 671.04
  L 370.03 675.92
  L 371.92 680.40
  L 374.26 684.48
  L 377.07 688.15
  L 377.07 688.15
  L 377.07 688.15
  L 380.16 691.28
  L 383.67 694.04
  L 387.60 696.44
  L 391.94 698.47
  L 396.12 699.85
  L 400.50 700.70
  L 405.11 701.02
  L 409.74 700.80
  L 414.26 700.05
  L 418.61 698.77
  L 422.60 697.02
  L 426.26 694.79
  L 430.21 691.77
  L 433.95 688.53
  L 433.95 688.53
  L 436.18 686.39
  L 436.63 686.37
  L 455.02 701.40
  Z"
/>
<path fill="#000000" d="
  M 794.39 660.07
  L 794.07 666.56
  L 793.12 673.00
  L 791.54 679.30
  L 789.35 685.43
  L 786.57 691.30
  L 783.22 696.88
  L 779.35 702.10
  L 774.98 706.92
  L 770.16 711.29
  L 764.94 715.16
  L 759.36 718.51
  L 753.49 721.29
  L 747.36 723.48
  L 741.06 725.06
  L 734.62 726.01
  L 728.13 726.33
  L 721.64 726.01
  L 715.20 725.06
  L 708.90 723.48
  L 702.77 721.29
  L 696.90 718.51
  L 691.32 715.16
  L 686.10 711.29
  L 681.28 706.92
  L 676.91 702.10
  L 673.04 696.88
  L 669.69 691.30
  L 666.91 685.43
  L 664.72 679.30
  L 663.14 673.00
  L 662.19 666.56
  L 661.87 660.07
  L 662.19 653.58
  L 663.14 647.14
  L 664.72 640.84
  L 666.91 634.71
  L 669.69 628.84
  L 673.04 623.26
  L 676.91 618.04
  L 681.28 613.22
  L 686.10 608.85
  L 691.32 604.98
  L 696.90 601.63
  L 702.77 598.85
  L 708.90 596.66
  L 715.20 595.08
  L 721.64 594.13
  L 728.13 593.81
  L 734.62 594.13
  L 741.06 595.08
  L 747.36 596.66
  L 753.49 598.85
  L 759.36 601.63
  L 764.94 604.98
  L 770.16 608.85
  L 774.98 613.22
  L 779.35 618.04
  L 783.22 623.26
  L 786.57 628.84
  L 789.35 634.71
  L 791.54 640.84
  L 793.12 647.14
  L 794.07 653.58
  L 794.39 660.07
  Z
  M 689.70 659.50
  L 689.87 664.35
  L 690.54 669.08
  L 691.70 673.64
  L 693.34 677.99
  L 695.43 682.07
  L 697.97 685.86
  L 700.88 689.24
  L 704.20 692.27
  L 707.66 694.74
  L 711.46 696.84
  L 715.49 698.49
  L 719.82 699.73
  L 723.79 700.44
  L 727.70 700.78
  L 731.54 700.73
  L 735.32 700.29
  L 735.32 700.29
  L 735.32 700.29
  L 739.10 699.45
  L 742.82 698.21
  L 746.46 696.58
  L 750.04 694.54
  L 750.67 694.13
  L 754.15 691.44
  L 757.32 688.19
  L 760.02 684.54
  L 762.33 680.39
  L 764.19 675.85
  L 765.58 670.93
  L 766.44 665.87
  L 766.80 660.59
  L 766.62 655.74
  L 765.95 651.01
  L 764.79 646.45
  L 763.15 642.11
  L 761.07 638.03
  L 758.53 634.24
  L 755.62 630.85
  L 752.30 627.82
  L 748.83 625.35
  L 745.03 623.25
  L 741.01 621.60
  L 736.68 620.37
  L 732.70 619.65
  L 728.79 619.31
  L 724.95 619.37
  L 721.17 619.80
  L 721.17 619.80
  L 721.17 619.80
  L 721.17 619.80
  L 717.39 620.64
  L 713.68 621.88
  L 710.03 623.52
  L 706.45 625.55
  L 705.82 625.96
  L 702.34 628.65
  L 699.18 631.90
  L 696.48 635.55
  L 694.16 639.70
  L 692.30 644.24
  L 690.91 649.17
  L 690.05 654.22
  L 689.70 659.50
  Z"
/>
<path fill="#000000" d="
  M 915.83 680.72
  L 916.64 678.83
  L 922.50 654.87
  L 926.15 641.01
  L 932.18 615.85
  L 936.24 598.48
  L 936.49 597.89
  L 936.91 597.42
  L 937.47 597.12
  L 938.10 597.01
  L 963.40 597.01
  L 963.46 597.01
  L 963.98 597.29
  L 964.12 597.87
  L 962.82 603.33
  L 935.04 700.54
  L 931.99 711.74
  L 929.48 722.06
  L 929.05 722.75
  L 928.28 723.02
  L 906.18 723.02
  L 905.17 722.69
  L 904.56 721.83
  L 880.76 644.55
  L 880.40 643.70
  L 879.55 641.59
  L 879.47 641.43
  L 879.13 641.33
  L 878.88 641.57
  L 853.80 721.88
  L 853.21 722.70
  L 852.25 723.02
  L 831.08 723.02
  L 830.46 722.92
  L 829.91 722.62
  L 829.48 722.17
  L 829.22 721.60
  L 812.14 660.39
  L 794.05 598.45
  L 794.01 597.97
  L 794.18 597.51
  L 794.52 597.16
  L 794.97 596.99
  L 795.14 596.98
  L 822.13 596.98
  L 822.67 597.18
  L 822.95 597.69
  L 823.83 602.69
  L 825.02 607.98
  L 834.88 648.78
  L 842.77 680.87
  L 842.86 681.03
  L 843.20 681.12
  L 843.46 680.88
  L 869.21 598.41
  L 869.51 597.81
  L 869.98 597.33
  L 870.58 597.03
  L 871.24 596.92
  L 888.96 596.92
  L 889.75 597.18
  L 890.23 597.86
  L 915.36 680.66
  L 915.53 680.83
  L 915.77 680.79
  L 915.77 680.79
  L 915.83 680.72
  Z"
/>
<path fill="#000000" d="
  M 72.12 599.40
  L 72.45 598.20
  L 73.30 597.39
  L 74.43 597.09
  L 125.72 597.18
  L 131.85 597.48
  L 137.91 598.34
  L 143.86 599.76
  L 149.63 601.73
  L 155.17 604.22
  L 160.43 607.21
  L 165.35 610.67
  L 169.88 614.58
  L 174.00 618.88
  L 177.64 623.55
  L 180.79 628.53
  L 183.40 633.78
  L 185.46 639.25
  L 186.94 644.88
  L 187.83 650.63
  L 188.12 656.42
  L 188.12 656.42
  L 188.12 656.42
  L 188.10 663.90
  L 188.10 663.90
  L 187.79 669.70
  L 186.88 675.43
  L 185.38 681.06
  L 183.31 686.52
  L 180.67 691.76
  L 177.51 696.73
  L 173.85 701.39
  L 169.72 705.68
  L 165.17 709.57
  L 160.24 713.02
  L 154.97 715.99
  L 149.43 718.46
  L 143.65 720.41
  L 137.70 721.81
  L 131.63 722.65
  L 125.50 722.92
  L 74.21 722.83
  L 73.43 722.69
  L 72.74 722.30
  L 72.12 721.50
  L 71.90 720.52
  L 72.12 599.40
  Z
  M 98.87 622.57
  L 99.13 697.35
  L 99.25 697.95
  L 99.60 698.46
  L 100.11 698.80
  L 100.72 698.92
  L 124.53 698.84
  L 128.13 698.65
  L 131.69 698.12
  L 135.18 697.25
  L 138.57 696.05
  L 141.83 694.53
  L 144.91 692.70
  L 147.80 690.59
  L 150.46 688.21
  L 152.87 685.58
  L 155.01 682.74
  L 156.85 679.70
  L 158.38 676.50
  L 159.59 673.17
  L 160.45 669.75
  L 160.97 666.25
  L 161.13 662.72
  L 161.11 656.76
  L 160.92 653.23
  L 160.38 649.74
  L 159.49 646.32
  L 158.27 643.00
  L 156.71 639.81
  L 154.85 636.79
  L 152.69 633.96
  L 150.26 631.35
  L 147.58 628.99
  L 144.68 626.89
  L 141.58 625.09
  L 138.32 623.59
  L 134.92 622.41
  L 131.42 621.57
  L 127.85 621.06
  L 124.25 620.90
  L 100.44 620.98
  L 99.84 621.11
  L 99.33 621.45
  L 98.99 621.96
  L 98.87 622.57
  Z"
/>
<path fill="#000000" d="
  M 500.00 620.45
  L 500.00 650.99
  L 500.30 651.71
  L 501.02 652.01
  L 554.18 652.01
  L 554.77 652.25
  L 555.01 652.84
  L 555.01 673.37
  L 554.91 673.87
  L 554.62 674.28
  L 554.18 674.55
  L 553.68 674.63
  L 553.68 674.63
  L 553.61 674.62
  L 548.26 674.23
  L 542.56 674.20
  L 530.14 674.31
  L 514.58 674.06
  L 513.00 674.03
  L 507.72 674.12
  L 501.30 674.60
  L 500.37 675.07
  L 499.99 676.05
  L 499.99 721.08
  L 499.99 721.13
  L 499.85 721.70
  L 499.50 722.17
  L 498.99 722.47
  L 498.41 722.55
  L 497.83 722.51
  L 493.47 722.29
  L 490.19 722.38
  L 480.25 722.93
  L 476.25 722.80
  L 473.93 722.25
  L 473.59 721.95
  L 473.44 721.52
  L 473.07 714.56
  L 472.96 706.50
  L 472.99 601.25
  L 473.21 597.61
  L 473.44 597.17
  L 473.90 597.00
  L 561.28 597.00
  L 561.31 597.00
  L 561.90 597.28
  L 562.12 597.90
  L 560.85 619.59
  L 560.72 619.88
  L 560.42 620.00
  L 500.45 620.00
  L 500.13 620.13
  L 500.00 620.45
  Z"
/>
<path fill="#000000" d="
  M 628.21 722.75
  L 627.63 722.97
  L 626.64 722.82
  L 625.86 722.73
  L 617.19 722.86
  L 604.99 722.63
  L 589.05 722.40
  L 577.61 722.82
  L 577.55 722.82
  L 576.96 722.72
  L 576.44 722.40
  L 576.10 721.90
  L 575.98 721.30
  L 575.98 597.60
  L 576.15 597.18
  L 576.56 597.01
  L 602.37 597.01
  L 602.82 597.19
  L 603.00 597.63
  L 603.00 697.67
  L 603.10 698.18
  L 603.39 698.62
  L 603.83 698.91
  L 604.34 699.01
  L 659.42 699.01
  L 660.03 699.13
  L 660.54 699.48
  L 660.89 700.00
  L 661.01 700.61
  L 661.01 721.31
  L 660.89 721.90
  L 660.57 722.40
  L 660.07 722.73
  L 659.49 722.86
  L 645.83 722.95
  L 631.20 722.77
  L 629.87 722.93
  L 629.07 722.94
  L 628.88 722.78
  L 628.56 722.62
  L 628.23 722.73
  L 628.21 722.75
  Z"
/>
</svg>
